<svg width="48" height="48" viewBox="0 0 48 48" fill="none" xmlns="http://www.w3.org/2000/svg">
  <circle cx="24" cy="24" r="20" fill="#1890FF"/>
  <path d="M24 12C17.373 12 12 17.373 12 24C12 30.627 17.373 36 24 36C30.627 36 36 30.627 36 24C36 17.373 30.627 12 24 12ZM28.707 27.293L25.414 24L28.707 20.707C29.098 20.316 29.098 19.684 28.707 19.293C28.316 18.902 27.684 18.902 27.293 19.293L24 22.586L20.707 19.293C20.316 18.902 19.684 18.902 19.293 19.293C18.902 19.684 18.902 20.316 19.293 20.707L22.586 24L19.293 27.293C18.902 27.684 18.902 28.316 19.293 28.707C19.488 28.902 19.744 29 20 29C20.256 29 20.512 28.902 20.707 28.707L24 25.414L27.293 28.707C27.488 28.902 27.744 29 28 29C28.256 29 28.512 28.902 28.707 28.707C29.098 28.316 29.098 27.684 28.707 27.293Z" fill="white"/>
</svg>